<svg width="800" height="500" xmlns="http://www.w3.org/2000/svg">
  <defs>
    <marker id="arrowhead" markerWidth="10" markerHeight="7" refX="9" refY="3.5" orient="auto">
      <polygon points="0 0, 10 3.5, 0 7" fill="#666" />
    </marker>
  </defs>
  <rect width="100%" height="100%" fill="#1a1a1a" />

    <style>
      .text { font-family: sans-serif; fill: #eee; }
      .title { font-size: 24px; font-weight: bold; text-anchor: middle; fill: #fff; }
      .label { font-size: 14px; text-anchor: middle; }
      .desc { font-size: 10px; fill: #aaa; text-anchor: middle; }
      .box { fill: #2d2d2d; stroke: #4ECDC4; stroke-width: 2; }
      .line { stroke: #666; stroke-width: 2; }
    </style>

  <text x="400" y="30" class="title">Architecture Agent Cognitif</text>


           <line x1="500" y1="80" x2="500" y2="180" class="line" marker-end="url(#arrowhead)" />


           <line x1="500" y1="180" x2="160" y2="340" class="line" marker-end="url(#arrowhead)" />


           <line x1="500" y1="180" x2="290" y2="340" class="line" marker-end="url(#arrowhead)" />


           <line x1="500" y1="180" x2="420" y2="340" class="line" marker-end="url(#arrowhead)" />


           <line x1="500" y1="180" x2="550" y2="340" class="line" marker-end="url(#arrowhead)" />


           <line x1="500" y1="180" x2="680" y2="340" class="line" marker-end="url(#arrowhead)" />


           <line x1="160" y1="340" x2="600" y2="480" class="line" marker-end="url(#arrowhead)" />


           <line x1="290" y1="340" x2="600" y2="480" class="line" marker-end="url(#arrowhead)" />


           <line x1="420" y1="340" x2="600" y2="480" class="line" marker-end="url(#arrowhead)" />


           <line x1="550" y1="340" x2="600" y2="480" class="line" marker-end="url(#arrowhead)" />


           <line x1="680" y1="340" x2="600" y2="480" class="line" marker-end="url(#arrowhead)" />



         <rect x="300" y="50" width="400" height="60" class="box" rx="5" />
         <text x="500" y="85" class="text label">INTERFACE UTILISATEUR</text>

         <rect x="300" y="150" width="400" height="60" class="box" rx="5" />
         <text x="500" y="185" class="text label">ORCHESTRATEUR</text>

         <rect x="100" y="300" width="120" height="80" class="box" rx="5" />
         <text x="160" y="345" class="text label">REASONING</text>

         <rect x="230" y="300" width="120" height="80" class="box" rx="5" />
         <text x="290" y="345" class="text label">MEMORY</text>

         <rect x="360" y="300" width="120" height="80" class="box" rx="5" />
         <text x="420" y="345" class="text label">ACTION</text>

         <rect x="490" y="300" width="120" height="80" class="box" rx="5" />
         <text x="550" y="345" class="text label">LEARNING</text>

         <rect x="620" y="300" width="120" height="80" class="box" rx="5" />
         <text x="680" y="345" class="text label">SECURITY</text>

         <rect x="300" y="450" width="600" height="60" class="box" rx="5" />
         <text x="600" y="485" class="text label">PERSISTANCE</text>


</svg>