<svg width="800" height="500" xmlns="http://www.w3.org/2000/svg">
  <defs>
    <marker id="arrowhead" markerWidth="10" markerHeight="7" refX="9" refY="3.5" orient="auto">
      <polygon points="0 0, 10 3.5, 0 7" fill="#666" />
    </marker>
  </defs>
  <rect width="100%" height="100%" fill="#1a1a1a" />

    <style>
      .text { font-family: sans-serif; fill: #eee; }
      .title { font-size: 24px; font-weight: bold; text-anchor: middle; fill: #fff; }
      .label { font-size: 14px; text-anchor: middle; }
      .desc { font-size: 10px; fill: #aaa; text-anchor: middle; }
      .box { fill: #2d2d2d; stroke: #4ECDC4; stroke-width: 2; }
      .line { stroke: #666; stroke-width: 2; }
    </style>

  <text x="400" y="30" class="title">Mécanisme d'Attention (Q, K, V)</text>


           <line x1="100" y1="225" x2="300" y2="125" class="line" marker-end="url(#arrowhead)" />


           <line x1="100" y1="225" x2="300" y2="225" class="line" marker-end="url(#arrowhead)" />


           <line x1="100" y1="225" x2="300" y2="325" class="line" marker-end="url(#arrowhead)" />


           <line x1="300" y1="125" x2="525" y2="200" class="line" marker-end="url(#arrowhead)" />


           <line x1="300" y1="225" x2="525" y2="200" class="line" marker-end="url(#arrowhead)" />


           <line x1="525" y1="200" x2="700" y2="225" class="line" marker-end="url(#arrowhead)" />


           <line x1="300" y1="325" x2="700" y2="225" class="line" marker-end="url(#arrowhead)" />



         <rect x="50" y="200" width="100" height="50" class="box" rx="5" />
         <text x="100" y="230" class="text label">Token Input</text>

         <rect x="250" y="100" width="100" height="50" class="box" rx="5" />
         <text x="300" y="130" class="text label">Q (Query)</text>

         <rect x="250" y="200" width="100" height="50" class="box" rx="5" />
         <text x="300" y="230" class="text label">K (Key)</text>

         <rect x="250" y="300" width="100" height="50" class="box" rx="5" />
         <text x="300" y="330" class="text label">V (Value)</text>

         <rect x="450" y="150" width="150" height="100" class="box" rx="5" />
         <text x="525" y="205" class="text label">Matrice Attention</text>

         <rect x="650" y="200" width="100" height="50" class="box" rx="5" />
         <text x="700" y="230" class="text label">Contexte</text>


</svg>