<svg width="800" height="500" xmlns="http://www.w3.org/2000/svg">
  <defs>
    <marker id="arrowhead" markerWidth="10" markerHeight="7" refX="9" refY="3.5" orient="auto">
      <polygon points="0 0, 10 3.5, 0 7" fill="#666" />
    </marker>
  </defs>
  <rect width="100%" height="100%" fill="#1a1a1a" />

    <style>
      .text { font-family: sans-serif; fill: #eee; }
      .title { font-size: 24px; font-weight: bold; text-anchor: middle; fill: #fff; }
      .label { font-size: 14px; text-anchor: middle; }
      .desc { font-size: 10px; fill: #aaa; text-anchor: middle; }
      .box { fill: #2d2d2d; stroke: #4ECDC4; stroke-width: 2; }
      .line { stroke: #666; stroke-width: 2; }
    </style>

  <text x="400" y="30" class="title">CodeRAG: Graphe de Dépendances</text>


           <line x1="350" y1="75" x2="200" y2="175" class="line" marker-end="url(#arrowhead)" />


           <line x1="350" y1="75" x2="500" y2="175" class="line" marker-end="url(#arrowhead)" />


           <line x1="200" y1="175" x2="200" y2="275" class="line" marker-end="url(#arrowhead)" />


           <line x1="500" y1="175" x2="500" y2="275" class="line" marker-end="url(#arrowhead)" />



         <rect x="300" y="50" width="100" height="50" class="box" rx="5" />
         <text x="350" y="80" class="text label">Main.ts</text>

         <rect x="150" y="150" width="100" height="50" class="box" rx="5" />
         <text x="200" y="180" class="text label">Lib.ts</text>

         <rect x="450" y="150" width="100" height="50" class="box" rx="5" />
         <text x="500" y="180" class="text label">Utils.ts</text>

         <rect x="150" y="250" width="100" height="50" class="box" rx="5" />
         <text x="200" y="280" class="text label">Db.ts</text>

         <rect x="450" y="250" width="100" height="50" class="box" rx="5" />
         <text x="500" y="280" class="text label">Log.ts</text>


</svg>