<svg width="800" height="500" xmlns="http://www.w3.org/2000/svg">
  <defs>
    <marker id="arrowhead" markerWidth="10" markerHeight="7" refX="9" refY="3.5" orient="auto">
      <polygon points="0 0, 10 3.5, 0 7" fill="#666" />
    </marker>
  </defs>
  <rect width="100%" height="100%" fill="#1a1a1a" />

    <style>
      .text { font-family: sans-serif; fill: #eee; }
      .title { font-size: 24px; font-weight: bold; text-anchor: middle; fill: #fff; }
      .label { font-size: 14px; text-anchor: middle; }
      .desc { font-size: 10px; fill: #aaa; text-anchor: middle; }
      .box { fill: #2d2d2d; stroke: #4ECDC4; stroke-width: 2; }
      .line { stroke: #666; stroke-width: 2; }
    </style>

  <text x="400" y="30" class="title">Analogie Roi - Homme + Femme = Reine</text>


           <line x1="150" y1="325" x2="150" y2="125" class="line" marker-end="url(#arrowhead)" />
           <text x="150" y="220" class="text desc">Royauté</text>

           <line x1="550" y1="325" x2="550" y2="125" class="line" marker-end="url(#arrowhead)" />
           <text x="550" y="220" class="text desc">Royauté</text>

           <line x1="150" y1="125" x2="550" y2="125" class="line" marker-end="url(#arrowhead)" />
           <text x="350" y="120" class="text desc">Genre</text>

           <line x1="150" y1="325" x2="550" y2="325" class="line" marker-end="url(#arrowhead)" />
           <text x="350" y="320" class="text desc">Genre</text>


         <rect x="100" y="100" width="100" height="50" class="box" rx="5" />
         <text x="150" y="130" class="text label">ROI</text>

         <rect x="100" y="300" width="100" height="50" class="box" rx="5" />
         <text x="150" y="330" class="text label">HOMME</text>

         <rect x="500" y="300" width="100" height="50" class="box" rx="5" />
         <text x="550" y="330" class="text label">FEMME</text>

         <rect x="500" y="100" width="100" height="50" class="box" rx="5" />
         <text x="550" y="130" class="text label">REINE</text>


</svg>