<svg width="800" height="500" xmlns="http://www.w3.org/2000/svg">
  <defs>
    <marker id="arrowhead" markerWidth="10" markerHeight="7" refX="9" refY="3.5" orient="auto">
      <polygon points="0 0, 10 3.5, 0 7" fill="#666" />
    </marker>
  </defs>
  <rect width="100%" height="100%" fill="#1a1a1a" />

    <style>
      .text { font-family: sans-serif; fill: #eee; }
      .title { font-size: 24px; font-weight: bold; text-anchor: middle; fill: #fff; }
      .label { font-size: 14px; text-anchor: middle; }
      .desc { font-size: 10px; fill: #aaa; text-anchor: middle; }
      .box { fill: #2d2d2d; stroke: #4ECDC4; stroke-width: 2; }
      .line { stroke: #666; stroke-width: 2; }
    </style>

  <text x="400" y="30" class="title">Pipeline Hybride ToT + MCTS</text>


           <line x1="400" y1="80" x2="400" y2="180" class="line" marker-end="url(#arrowhead)" />


           <line x1="400" y1="180" x2="150" y2="330" class="line" marker-end="url(#arrowhead)" />


           <line x1="400" y1="180" x2="400" y2="330" class="line" marker-end="url(#arrowhead)" />


           <line x1="400" y1="180" x2="650" y2="330" class="line" marker-end="url(#arrowhead)" />


           <line x1="150" y1="330" x2="400" y2="480" class="line" marker-end="url(#arrowhead)" />


           <line x1="400" y1="330" x2="400" y2="480" class="line" marker-end="url(#arrowhead)" />


           <line x1="650" y1="330" x2="400" y2="480" class="line" marker-end="url(#arrowhead)" />



         <rect x="300" y="50" width="200" height="60" class="box" rx="5" />
         <text x="400" y="85" class="text label">ToT Exploration</text>

         <rect x="300" y="150" width="200" height="60" class="box" rx="5" />
         <text x="400" y="185" class="text label">Top 3 Candidats</text>

         <rect x="100" y="300" width="100" height="60" class="box" rx="5" />
         <text x="150" y="335" class="text label">MCTS A</text>

         <rect x="350" y="300" width="100" height="60" class="box" rx="5" />
         <text x="400" y="335" class="text label">MCTS B</text>

         <rect x="600" y="300" width="100" height="60" class="box" rx="5" />
         <text x="650" y="335" class="text label">MCTS C</text>

         <rect x="300" y="450" width="200" height="60" class="box" rx="5" />
         <text x="400" y="485" class="text label">Meilleure Solution</text>


</svg>