<svg width="800" height="400" xmlns="http://www.w3.org/2000/svg">
  <defs>
    <marker id="arrowhead" markerWidth="10" markerHeight="7" refX="9" refY="3.5" orient="auto">
      <polygon points="0 0, 10 3.5, 0 7" fill="#666" />
    </marker>
  </defs>
  <rect width="100%" height="100%" fill="#1a1a1a" />

    <style>
      .text { font-family: sans-serif; fill: #eee; }
      .title { font-size: 24px; font-weight: bold; text-anchor: middle; fill: #fff; }
      .label { font-size: 14px; text-anchor: middle; }
      .desc { font-size: 10px; fill: #aaa; text-anchor: middle; }
      .box { fill: #2d2d2d; stroke: #4ECDC4; stroke-width: 2; }
      .line { stroke: #666; stroke-width: 2; }
    </style>

  <text x="400" y="30" class="title">Pipeline RAG Complet</text>

         <rect x="-40" y="150" width="80" height="60" class="box" fill="#333" />
         <text x="0" y="185" class="text label" font-size="10px">PARSE AST</text>
         <line x1="40" y1="180" x2="70" y2="180" class="line" marker-end="url(#arrowhead)" />

         <rect x="70" y="150" width="80" height="60" class="box" fill="#333" />
         <text x="110" y="185" class="text label" font-size="10px">CHUNK</text>
         <line x1="150" y1="180" x2="180" y2="180" class="line" marker-end="url(#arrowhead)" />

         <rect x="180" y="150" width="80" height="60" class="box" fill="#333" />
         <text x="220" y="185" class="text label" font-size="10px">EMBED</text>
         <line x1="260" y1="180" x2="290" y2="180" class="line" marker-end="url(#arrowhead)" />

         <rect x="290" y="150" width="80" height="60" class="box" fill="#333" />
         <text x="330" y="185" class="text label" font-size="10px">INDEX</text>
         <line x1="370" y1="180" x2="400" y2="180" class="line" marker-end="url(#arrowhead)" />

         <rect x="400" y="150" width="80" height="60" class="box" fill="#333" />
         <text x="440" y="185" class="text label" font-size="10px">RETRIEVE</text>
         <line x1="480" y1="180" x2="510" y2="180" class="line" marker-end="url(#arrowhead)" />

         <rect x="510" y="150" width="80" height="60" class="box" fill="#333" />
         <text x="550" y="185" class="text label" font-size="10px">RERANK</text>
         <line x1="590" y1="180" x2="620" y2="180" class="line" marker-end="url(#arrowhead)" />

         <rect x="620" y="150" width="80" height="60" class="box" fill="#333" />
         <text x="660" y="185" class="text label" font-size="10px">AUGMENT</text>
         <line x1="700" y1="180" x2="730" y2="180" class="line" marker-end="url(#arrowhead)" />

         <rect x="730" y="150" width="80" height="60" class="box" fill="#333" />
         <text x="770" y="185" class="text label" font-size="10px">GENERATE</text>


</svg>