<svg width="800" height="500" xmlns="http://www.w3.org/2000/svg">
  <defs>
    <marker id="arrowhead" markerWidth="10" markerHeight="7" refX="9" refY="3.5" orient="auto">
      <polygon points="0 0, 10 3.5, 0 7" fill="#666" />
    </marker>
  </defs>
  <rect width="100%" height="100%" fill="#1a1a1a" />

    <style>
      .text { font-family: sans-serif; fill: #eee; }
      .title { font-size: 24px; font-weight: bold; text-anchor: middle; fill: #fff; }
      .label { font-size: 14px; text-anchor: middle; }
      .desc { font-size: 10px; fill: #aaa; text-anchor: middle; }
      .box { fill: #2d2d2d; stroke: #4ECDC4; stroke-width: 2; }
      .line { stroke: #666; stroke-width: 2; }
    </style>

  <text x="400" y="30" class="title">SBFL: Suspicion Matrix</text>
  <text x="160" y="90" class="text label" font-weight="bold">Test 1 (Pass)</text><text x="280" y="90" class="text label" font-weight="bold">Test 2 (Fail)</text><text x="400" y="90" class="text label" font-weight="bold">Test 3 (Pass)</text><text x="520" y="90" class="text label" font-weight="bold">Test 4 (Fail)</text><text x="640" y="90" class="text label" font-weight="bold">Suspicion</text><text x="90" y="120" class="text label" text-anchor="end">Line 10</text>
                <rect x="100" y="100" width="120" height="40" fill="#222" stroke="#444" />
                <text x="160" y="125" class="text label">✓</text>

                <rect x="220" y="100" width="120" height="40" fill="#222" stroke="#444" />
                <text x="280" y="125" class="text label">✓</text>

                <rect x="340" y="100" width="120" height="40" fill="#222" stroke="#444" />
                <text x="400" y="125" class="text label">✓</text>

                <rect x="460" y="100" width="120" height="40" fill="#222" stroke="#444" />
                <text x="520" y="125" class="text label">✓</text>

                <rect x="580" y="100" width="120" height="40" fill="#222" stroke="#444" />
                <text x="640" y="125" class="text label">0.25</text>
              <text x="90" y="160" class="text label" text-anchor="end">Line 11</text>
                <rect x="100" y="140" width="120" height="40" fill="#222" stroke="#444" />
                <text x="160" y="165" class="text label">✓</text>

                <rect x="220" y="140" width="120" height="40" fill="#222" stroke="#444" />
                <text x="280" y="165" class="text label">✓</text>

                <rect x="340" y="140" width="120" height="40" fill="#222" stroke="#444" />
                <text x="400" y="165" class="text label"></text>

                <rect x="460" y="140" width="120" height="40" fill="#222" stroke="#444" />
                <text x="520" y="165" class="text label">✓</text>

                <rect x="580" y="140" width="120" height="40" fill="#222" stroke="#444" />
                <text x="640" y="165" class="text label">0.45</text>
              <text x="90" y="200" class="text label" text-anchor="end">Line 12 (Bug)</text>
                <rect x="100" y="180" width="120" height="40" fill="#333" stroke="#444" />
                <text x="160" y="205" class="text label"></text>

                <rect x="220" y="180" width="120" height="40" fill="#333" stroke="#444" />
                <text x="280" y="205" class="text label">✓</text>

                <rect x="340" y="180" width="120" height="40" fill="#333" stroke="#444" />
                <text x="400" y="205" class="text label"></text>

                <rect x="460" y="180" width="120" height="40" fill="#333" stroke="#444" />
                <text x="520" y="205" class="text label">✓</text>

                <rect x="580" y="180" width="120" height="40" fill="#333" stroke="#444" />
                <text x="640" y="205" class="text label">0.90</text>
              <text x="90" y="240" class="text label" text-anchor="end">Line 13</text>
                <rect x="100" y="220" width="120" height="40" fill="#222" stroke="#444" />
                <text x="160" y="245" class="text label">✓</text>

                <rect x="220" y="220" width="120" height="40" fill="#222" stroke="#444" />
                <text x="280" y="245" class="text label">✓</text>

                <rect x="340" y="220" width="120" height="40" fill="#222" stroke="#444" />
                <text x="400" y="245" class="text label">✓</text>

                <rect x="460" y="220" width="120" height="40" fill="#222" stroke="#444" />
                <text x="520" y="245" class="text label"></text>

                <rect x="580" y="220" width="120" height="40" fill="#222" stroke="#444" />
                <text x="640" y="245" class="text label">0.30</text>

</svg>