<svg width="800" height="500" xmlns="http://www.w3.org/2000/svg">
  <defs>
    <marker id="arrowhead" markerWidth="10" markerHeight="7" refX="9" refY="3.5" orient="auto">
      <polygon points="0 0, 10 3.5, 0 7" fill="#666" />
    </marker>
  </defs>
  <rect width="100%" height="100%" fill="#1a1a1a" />

    <style>
      .text { font-family: sans-serif; fill: #eee; }
      .title { font-size: 24px; font-weight: bold; text-anchor: middle; fill: #fff; }
      .label { font-size: 14px; text-anchor: middle; }
      .desc { font-size: 10px; fill: #aaa; text-anchor: middle; }
      .box { fill: #2d2d2d; stroke: #4ECDC4; stroke-width: 2; }
      .line { stroke: #666; stroke-width: 2; }
    </style>

  <text x="400" y="30" class="title">Stratégies: BFS vs DFS vs Beam</text>


           <line x1="400" y1="70" x2="400" y2="170" class="line" marker-end="url(#arrowhead)" />


           <line x1="400" y1="170" x2="400" y2="270" class="line" marker-end="url(#arrowhead)" />


           <line x1="400" y1="270" x2="190" y2="380" class="line" marker-end="url(#arrowhead)" />


           <line x1="400" y1="270" x2="400" y2="380" class="line" marker-end="url(#arrowhead)" />


           <line x1="400" y1="270" x2="610" y2="380" class="line" marker-end="url(#arrowhead)" />



         <rect x="350" y="50" width="100" height="40" class="box" rx="5" />
         <text x="400" y="75" class="text label">Start</text>

         <rect x="100" y="350" width="180" height="60" class="box" rx="5" />
         <text x="190" y="385" class="text label">BFS: Niveau par niveau</text>

         <rect x="310" y="350" width="180" height="60" class="box" rx="5" />
         <text x="400" y="385" class="text label">DFS: Profondeur d'abord</text>

         <rect x="520" y="350" width="180" height="60" class="box" rx="5" />
         <text x="610" y="385" class="text label">Beam: Top K seulement</text>

         <rect x="350" y="150" width="100" height="40" class="box" rx="5" />
         <text x="400" y="175" class="text label">Level 1</text>

         <rect x="350" y="250" width="100" height="40" class="box" rx="5" />
         <text x="400" y="275" class="text label">Level 2</text>


</svg>